<svg xmlns="http://www.w3.org/2000/svg" viewBox="0 0 24 24" fill="none">
  <defs>
    <linearGradient id="quranGrad" x1="0%" y1="0%" x2="100%" y2="100%">
      <stop offset="0%" stop-color="#D84C7B" />
      <stop offset="100%" stop-color="#E57399" />
    </linearGradient>
  </defs>
  <!-- Open Book representing Quran pages -->
  <path d="M2 3h6a4 4 0 0 1 4 4v14a3 3 0 0 0-3-3H2z" fill="url(#quranGrad)" />
  <path d="M22 3h-6a4 4 0 0 0-4 4v14a3 3 0 0 1 3-3h7z" fill="url(#quranGrad)" />
  
  <!-- Subtle line details on the pages -->
  <path d="M5 7h2" stroke="#FFFFFF" stroke-width="1.5" stroke-linecap="round" />
  <path d="M5 11h2" stroke="#FFFFFF" stroke-width="1.5" stroke-linecap="round" />
  <path d="M17 7h2" stroke="#FFFFFF" stroke-width="1.5" stroke-linecap="round" />
  <path d="M17 11h2" stroke="#FFFFFF" stroke-width="1.5" stroke-linecap="round" />
  
  <!-- Central check badge representing tracking/completion progress -->
  <circle cx="12" cy="12" r="5.5" fill="#FFFFFF" stroke="#D84C7B" stroke-width="1.5" />
  <path d="M10 12l1.5 1.5 2.5-2.5" stroke="#D84C7B" stroke-width="1.8" stroke-linecap="round" stroke-linejoin="round" />
</svg>